<?xml version="1.0" encoding="UTF-8" standalone="no"?>
<!-- Created with Inkscape (http://www.inkscape.org/) -->

<svg
   xmlns:dc="http://purl.org/dc/elements/1.1/"
   xmlns:cc="http://creativecommons.org/ns#"
   xmlns:rdf="http://www.w3.org/1999/02/22-rdf-syntax-ns#"
   xmlns:svg="http://www.w3.org/2000/svg"
   xmlns="http://www.w3.org/2000/svg"
   xmlns:sodipodi="http://sodipodi.sourceforge.net/DTD/sodipodi-0.dtd"
   xmlns:inkscape="http://www.inkscape.org/namespaces/inkscape"
   id="svg7680"
   version="1.1"
   inkscape:version="0.91 r"
   xml:space="preserve"
   width="540"
   height="360"
   viewBox="0 0 540 360"
   sodipodi:docname="alzheimers_roc_rt_slice.svg"><metadata
     id="metadata7686"><rdf:RDF><cc:Work
         rdf:about=""><dc:format>image/svg+xml</dc:format><dc:type
           rdf:resource="http://purl.org/dc/dcmitype/StillImage" /><dc:title></dc:title></cc:Work></rdf:RDF></metadata><defs
     id="defs7684"><clipPath
       clipPathUnits="userSpaceOnUse"
       id="clipPath7698"><path
         d="m 54,36 334.8,0 0,217.44 -334.8,0 L 54,36 Z"
         id="path7700"
         inkscape:connector-curvature="0" /></clipPath><clipPath
       clipPathUnits="userSpaceOnUse"
       id="clipPath7790"><path
         d="m 54,36 334.8,0 0,217.44 -334.8,0 L 54,36 Z"
         id="path7792"
         inkscape:connector-curvature="0" /></clipPath><clipPath
       clipPathUnits="userSpaceOnUse"
       id="clipPath7800"><path
         d="m 54,36 334.8,0 0,217.44 -334.8,0 L 54,36 Z"
         id="path7802"
         inkscape:connector-curvature="0" /></clipPath></defs><sodipodi:namedview
     pagecolor="#ffffff"
     bordercolor="#666666"
     borderopacity="1"
     objecttolerance="10"
     gridtolerance="10"
     guidetolerance="10"
     inkscape:pageopacity="0"
     inkscape:pageshadow="2"
     inkscape:window-width="1288"
     inkscape:window-height="852"
     id="namedview7682"
     showgrid="false"
     inkscape:zoom="1.3111111"
     inkscape:cx="261.73041"
     inkscape:cy="201.40469"
     inkscape:window-x="65"
     inkscape:window-y="24"
     inkscape:window-maximized="0"
     inkscape:current-layer="g7806" /><g
     id="g7688"
     inkscape:groupmode="layer"
     inkscape:label="alzheimers_roc_rt_slice"
     transform="matrix(1.25,0,0,-1.25,0,360)"><path
       d="M 0,0 432,0 432,288 0,288 0,0 Z"
       style="fill:#ffffff;fill-opacity:1;fill-rule:nonzero;stroke:none"
       id="path7690"
       inkscape:connector-curvature="0" /><path
       d="m 54,36 334.8,0 0,217.44 -334.8,0 L 54,36 Z"
       style="fill:#ffffff;fill-opacity:1;fill-rule:nonzero;stroke:none"
       id="path7692"
       inkscape:connector-curvature="0" /><g
       id="g7694"><g
         id="g7696"
         clip-path="url(#clipPath7698)"><path
           d="m 69.218182,45.883636 0,0 3.07438,0 3.07438,0 3.07438,0 3.07438,10.604279 3.074381,0.07052 3.07438,10.781482 3.07438,0.338733 3.07438,17.636669 3.07438,12.584213 3.07438,0.911238 3.074377,7.96791 3.07438,0.3527 3.07438,8.82119 3.07438,0.32844 3.07438,7.72877 3.07438,0.31277 3.07439,4.66708 3.07438,6.74525 3.07438,0.25716 3.07437,6.28665 3.07438,0.16167 3.07438,5.64088 3.07439,0.21953 3.07438,6.21938 3.07438,0.66953 3.07438,5.57547 3.07438,4.00778 3.07438,0.26066 3.07438,8.40515 3.07438,0.2917 3.07438,2.21581 3.07438,0.0527 3.07438,7.1987 3.07438,0.39913 3.07438,4.84454 3.07438,5.15219 3.07438,0.11749 3.07438,7.39332 3.07438,0.30449 3.07438,8.48501 3.07438,0.32904 3.07438,4.47209 3.07438,0 3.07438,3.3056 3.07438,2.5793 3.07438,0.10897 3.07438,7.39542 3.07438,0.12382 3.07438,1.87528 3.07438,0 3.07438,5.92553 3.07438,0.28832 3.07438,4.10277 3.07438,0.48346 3.07438,0 3.07438,1.23533 3.07438,0 3.07438,0 3.07438,0 3.07438,1.43762 3.07438,0 3.07438,0 3.07438,0 3.07438,0 3.07438,0 3.07438,0 3.07438,0 3.07438,0 3.07438,0 3.07438,0 3.07438,0 3.07438,0 3.07438,0 3.07438,0 3.07438,0 3.07438,0 3.07438,0 3.07438,0 3.07438,0 3.07438,0 3.07438,0 3.07438,0 3.07439,0 3.07438,0 3.07438,0 3.07438,0 3.07438,0 3.07438,0 3.07438,0 3.07438,0 3.07438,0 3.07438,0 3.07438,0 3.07438,0 3.07438,0 3.07438,0 3.07438,0 3.07438,0 3.07438,0 0,0 0,0 -3.07438,0 -3.07438,0 -3.07438,0 -3.07438,0 -3.07438,0 -3.07438,0 -3.07438,0 -3.07438,0 -3.07438,0 -3.07438,0 -3.07438,0 -3.07438,0 -3.07438,0 -3.07438,0 -3.07438,0 -3.07438,0 -3.07439,0 -3.07438,0 -3.07438,0 -3.07438,0 -3.07438,0 -3.07438,0 -3.07438,0 -3.07438,0 -3.07438,0 -3.07438,0 -3.07438,0 -3.07438,0 -3.07438,0 -3.07438,0 -3.07438,0 -3.07438,0 -3.07438,0 -3.07438,0 -3.07438,0 -3.07438,0 -3.07438,0 -3.07438,0 -3.07438,0 -3.07438,0 -3.07438,0 -3.07438,0 -3.07438,0 -3.07438,0 -3.07438,0 -3.07438,0 -3.07438,0 -3.07438,0 -3.07438,0 -3.07438,0 -3.07438,0 -3.07438,0 -3.07438,0 -3.07438,0 -3.07438,0 -3.07438,0 -3.07438,0 -3.07438,0 -3.07438,0 -3.07438,0 -3.07438,0 -3.07438,-3.10696 -3.07438,-0.48151 -3.07438,-2.57502 -3.07438,-6.43678 -3.07438,-0.29972 -3.07438,-5.52024 -3.07438,-0.14697 -3.07438,-1.45811 -3.07438,-0.30731 -3.07438,-5.69151 -3.07438,-0.13868 -3.07438,-3.979 -3.07438,-3.56939 -3.07438,-0.52849 -3.07438,-7.3182 -3.07439,-0.37948 -3.07438,-6.51899 -3.07438,-0.53717 -3.07437,-6.27255 -3.07438,-0.44169 -3.07438,-7.67088 -3.07439,-7.63256 -3.07438,-0.28623 -3.07438,-7.32631 -3.07438,-0.47024 -3.07438,-8.0309 -3.07438,-0.24631 -3.074377,-8.68452 -3.07438,0.0127 -3.07438,-12.87364 -3.07438,-16.90613 -3.07438,-0.45995 -3.07438,-16.5333 -3.074381,-0.52849 -3.07438,-14.747611 -3.07438,-0.357517 -3.07438,-16.499377 -3.07438,-22.723706 z"
           style="fill:#808080;fill-opacity:0.2;fill-rule:nonzero;stroke:#808080;stroke-width:1;stroke-linecap:butt;stroke-linejoin:round;stroke-miterlimit:10;stroke-dasharray:none;stroke-opacity:0.2"
           id="path7702"
           inkscape:connector-curvature="0" /></g></g><g
       id="g7704"><path
         d="m 69.218182,36 0,-3.5"
         style="fill:#000000;fill-opacity:1;fill-rule:nonzero;stroke:#000000;stroke-width:0.80000001;stroke-linecap:butt;stroke-linejoin:round;stroke-miterlimit:10;stroke-dasharray:none;stroke-opacity:1"
         id="path7706"
         inkscape:connector-curvature="0" /><text
         transform="matrix(1,0,0,-1,61.265057,21.40625)"
         style="font-variant:normal;font-weight:normal;font-size:10px;font-family:'DejaVu Sans';-inkscape-font-specification:DejaVuSans;writing-mode:lr-tb;fill:#000000;fill-opacity:1;fill-rule:nonzero;stroke:none"
         id="text7708"><tspan
           x="0 6.3600001 9.54"
           y="0"
           sodipodi:role="line"
           id="tspan7710">0.0</tspan></text>
<path
         d="m 130.09091,36 0,-3.5"
         style="fill:#000000;fill-opacity:1;fill-rule:nonzero;stroke:#000000;stroke-width:0.80000001;stroke-linecap:butt;stroke-linejoin:round;stroke-miterlimit:10;stroke-dasharray:none;stroke-opacity:1"
         id="path7712"
         inkscape:connector-curvature="0" /><text
         transform="matrix(1,0,0,-1,122.13778,21.40625)"
         style="font-variant:normal;font-weight:normal;font-size:10px;font-family:'DejaVu Sans';-inkscape-font-specification:DejaVuSans;writing-mode:lr-tb;fill:#000000;fill-opacity:1;fill-rule:nonzero;stroke:none"
         id="text7714"><tspan
           x="0 6.3600001 9.54"
           y="0"
           sodipodi:role="line"
           id="tspan7716">0.2</tspan></text>
<path
         d="m 190.96364,36 0,-3.5"
         style="fill:#000000;fill-opacity:1;fill-rule:nonzero;stroke:#000000;stroke-width:0.80000001;stroke-linecap:butt;stroke-linejoin:round;stroke-miterlimit:10;stroke-dasharray:none;stroke-opacity:1"
         id="path7718"
         inkscape:connector-curvature="0" /><text
         transform="matrix(1,0,0,-1,183.01051,21.40625)"
         style="font-variant:normal;font-weight:normal;font-size:10px;font-family:'DejaVu Sans';-inkscape-font-specification:DejaVuSans;writing-mode:lr-tb;fill:#000000;fill-opacity:1;fill-rule:nonzero;stroke:none"
         id="text7720"><tspan
           x="0 6.3600001 9.54"
           y="0"
           sodipodi:role="line"
           id="tspan7722">0.4</tspan></text>
<path
         d="m 251.83636,36 0,-3.5"
         style="fill:#000000;fill-opacity:1;fill-rule:nonzero;stroke:#000000;stroke-width:0.80000001;stroke-linecap:butt;stroke-linejoin:round;stroke-miterlimit:10;stroke-dasharray:none;stroke-opacity:1"
         id="path7724"
         inkscape:connector-curvature="0" /><text
         transform="matrix(1,0,0,-1,243.88324,21.40625)"
         style="font-variant:normal;font-weight:normal;font-size:10px;font-family:'DejaVu Sans';-inkscape-font-specification:DejaVuSans;writing-mode:lr-tb;fill:#000000;fill-opacity:1;fill-rule:nonzero;stroke:none"
         id="text7726"><tspan
           x="0 6.3600001 9.54"
           y="0"
           sodipodi:role="line"
           id="tspan7728">0.6</tspan></text>
<path
         d="m 312.70909,36 0,-3.5"
         style="fill:#000000;fill-opacity:1;fill-rule:nonzero;stroke:#000000;stroke-width:0.80000001;stroke-linecap:butt;stroke-linejoin:round;stroke-miterlimit:10;stroke-dasharray:none;stroke-opacity:1"
         id="path7730"
         inkscape:connector-curvature="0" /><text
         transform="matrix(1,0,0,-1,304.75597,21.40625)"
         style="font-variant:normal;font-weight:normal;font-size:10px;font-family:'DejaVu Sans';-inkscape-font-specification:DejaVuSans;writing-mode:lr-tb;fill:#000000;fill-opacity:1;fill-rule:nonzero;stroke:none"
         id="text7732"><tspan
           x="0 6.3600001 9.54"
           y="0"
           sodipodi:role="line"
           id="tspan7734">0.8</tspan></text>
<path
         d="m 373.58182,36 0,-3.5"
         style="fill:#000000;fill-opacity:1;fill-rule:nonzero;stroke:#000000;stroke-width:0.80000001;stroke-linecap:butt;stroke-linejoin:round;stroke-miterlimit:10;stroke-dasharray:none;stroke-opacity:1"
         id="path7736"
         inkscape:connector-curvature="0" /><text
         transform="matrix(1,0,0,-1,365.62869,21.40625)"
         style="font-variant:normal;font-weight:normal;font-size:10px;font-family:'DejaVu Sans';-inkscape-font-specification:DejaVuSans;writing-mode:lr-tb;fill:#000000;fill-opacity:1;fill-rule:nonzero;stroke:none"
         id="text7738"><tspan
           x="0 6.3600001 9.54"
           y="0"
           sodipodi:role="line"
           id="tspan7740">1.0</tspan></text>
<text
         transform="matrix(1,0,0,-1,174.15,7.734375)"
         style="font-variant:normal;font-weight:normal;font-size:10px;font-family:'DejaVu Sans';-inkscape-font-specification:DejaVuSans;writing-mode:lr-tb;fill:#000000;fill-opacity:1;fill-rule:nonzero;stroke:none"
         id="text7742"><tspan
           x="0 5.75 11.88 14.66 19.870001 26.02 29.200001 35.23 41.349998 46.560001 49.34 53.259998 56.040001 61.959999 68.110001 71.290001 78.239998 84.370003 88.290001"
           y="0"
           sodipodi:role="line"
           id="tspan7744">False Positive Rate</tspan></text>
<path
         d="m 54,45.883636 -3.5,0"
         style="fill:#000000;fill-opacity:1;fill-rule:nonzero;stroke:#000000;stroke-width:0.80000001;stroke-linecap:butt;stroke-linejoin:round;stroke-miterlimit:10;stroke-dasharray:none;stroke-opacity:1"
         id="path7746"
         inkscape:connector-curvature="0" /><text
         transform="matrix(1,0,0,-1,31.09375,42.086761)"
         style="font-variant:normal;font-weight:normal;font-size:10px;font-family:'DejaVu Sans';-inkscape-font-specification:DejaVuSans;writing-mode:lr-tb;fill:#000000;fill-opacity:1;fill-rule:nonzero;stroke:none"
         id="text7748"><tspan
           x="0 6.3600001 9.54"
           y="0"
           sodipodi:role="line"
           id="tspan7750">0.0</tspan></text>
<path
         d="m 54,85.418182 -3.5,0"
         style="fill:#000000;fill-opacity:1;fill-rule:nonzero;stroke:#000000;stroke-width:0.80000001;stroke-linecap:butt;stroke-linejoin:round;stroke-miterlimit:10;stroke-dasharray:none;stroke-opacity:1"
         id="path7752"
         inkscape:connector-curvature="0" /><text
         transform="matrix(1,0,0,-1,31.09375,81.621307)"
         style="font-variant:normal;font-weight:normal;font-size:10px;font-family:'DejaVu Sans';-inkscape-font-specification:DejaVuSans;writing-mode:lr-tb;fill:#000000;fill-opacity:1;fill-rule:nonzero;stroke:none"
         id="text7754"><tspan
           x="0 6.3600001 9.54"
           y="0"
           sodipodi:role="line"
           id="tspan7756">0.2</tspan></text>
<path
         d="m 54,124.95273 -3.5,0"
         style="fill:#000000;fill-opacity:1;fill-rule:nonzero;stroke:#000000;stroke-width:0.80000001;stroke-linecap:butt;stroke-linejoin:round;stroke-miterlimit:10;stroke-dasharray:none;stroke-opacity:1"
         id="path7758"
         inkscape:connector-curvature="0" /><text
         transform="matrix(1,0,0,-1,31.09375,121.15585)"
         style="font-variant:normal;font-weight:normal;font-size:10px;font-family:'DejaVu Sans';-inkscape-font-specification:DejaVuSans;writing-mode:lr-tb;fill:#000000;fill-opacity:1;fill-rule:nonzero;stroke:none"
         id="text7760"><tspan
           x="0 6.3600001 9.54"
           y="0"
           sodipodi:role="line"
           id="tspan7762">0.4</tspan></text>
<path
         d="m 54,164.48727 -3.5,0"
         style="fill:#000000;fill-opacity:1;fill-rule:nonzero;stroke:#000000;stroke-width:0.80000001;stroke-linecap:butt;stroke-linejoin:round;stroke-miterlimit:10;stroke-dasharray:none;stroke-opacity:1"
         id="path7764"
         inkscape:connector-curvature="0" /><text
         transform="matrix(1,0,0,-1,31.09375,160.6904)"
         style="font-variant:normal;font-weight:normal;font-size:10px;font-family:'DejaVu Sans';-inkscape-font-specification:DejaVuSans;writing-mode:lr-tb;fill:#000000;fill-opacity:1;fill-rule:nonzero;stroke:none"
         id="text7766"><tspan
           x="0 6.3600001 9.54"
           y="0"
           sodipodi:role="line"
           id="tspan7768">0.6</tspan></text>
<path
         d="m 54,204.02182 -3.5,0"
         style="fill:#000000;fill-opacity:1;fill-rule:nonzero;stroke:#000000;stroke-width:0.80000001;stroke-linecap:butt;stroke-linejoin:round;stroke-miterlimit:10;stroke-dasharray:none;stroke-opacity:1"
         id="path7770"
         inkscape:connector-curvature="0" /><text
         transform="matrix(1,0,0,-1,31.09375,200.22494)"
         style="font-variant:normal;font-weight:normal;font-size:10px;font-family:'DejaVu Sans';-inkscape-font-specification:DejaVuSans;writing-mode:lr-tb;fill:#000000;fill-opacity:1;fill-rule:nonzero;stroke:none"
         id="text7772"><tspan
           x="0 6.3600001 9.54"
           y="0"
           sodipodi:role="line"
           id="tspan7774">0.8</tspan></text>
<path
         d="m 54,243.55636 -3.5,0"
         style="fill:#000000;fill-opacity:1;fill-rule:nonzero;stroke:#000000;stroke-width:0.80000001;stroke-linecap:butt;stroke-linejoin:round;stroke-miterlimit:10;stroke-dasharray:none;stroke-opacity:1"
         id="path7776"
         inkscape:connector-curvature="0" /><text
         transform="matrix(1,0,0,-1,31.09375,239.75949)"
         style="font-variant:normal;font-weight:normal;font-size:10px;font-family:'DejaVu Sans';-inkscape-font-specification:DejaVuSans;writing-mode:lr-tb;fill:#000000;fill-opacity:1;fill-rule:nonzero;stroke:none"
         id="text7778"><tspan
           x="0 6.3600001 9.54"
           y="0"
           sodipodi:role="line"
           id="tspan7780">1.0</tspan></text>
<text
         transform="matrix(0,1,1,0,25.015625,99.134062)"
         style="font-variant:normal;font-weight:normal;font-size:10px;font-family:'DejaVu Sans';-inkscape-font-specification:DejaVuSans;writing-mode:lr-tb;fill:#000000;fill-opacity:1;fill-rule:nonzero;stroke:none"
         id="text7782"><tspan
           x="0 6.1100001 10.22 16.559999 22.709999 25.889999 31.92 38.040001 43.25 46.029999 49.950001 52.73 58.650002 64.800003 67.980003 74.93 81.059998 84.980003"
           y="0"
           sodipodi:role="line"
           id="tspan7784">True Positive Rate</tspan></text>
</g><g
       id="g7786"><g
         id="g7788"
         clip-path="url(#clipPath7790)"><path
           d="m 69.218182,45.883636 3.07438,8.286281 3.07438,9.723901 3.07438,0.19967 3.07438,14.256396 3.074381,0.299504 3.07438,13.657389 3.07438,0.399339 3.07438,17.271404 3.07438,12.72893 3.07438,0.44925 3.074377,8.32622 3.07438,0.2995 3.07438,8.42605 3.07438,0.39934 3.07438,7.52754 3.07438,0.2995 3.07439,6.14982 3.07438,7.20807 3.07438,0.34942 3.07437,6.2796 3.07438,0.34942 3.07438,6.07994 3.07439,0.2995 3.07438,6.76879 3.07438,0.59901 3.07438,4.57243 3.07438,3.99339 3.07438,0.19967 3.07438,7.04833 3.07438,0.2995 3.07438,1.83696 3.07438,0.0998 3.07438,6.35947 3.07438,0.34942 3.07438,5.64066 3.07438,3.8636 3.07438,0.29951 3.07438,6.22968 3.07438,0.29951 3.07438,4.93183 3.07438,0.19967 3.07438,2.5957 3.07438,0 3.07438,2.95511 3.07438,1.53746 3.07438,0.0499 3.07438,3.28457 3.07438,0.0499 3.07438,1.28787 3.07438,0 3.07438,1.31782 3.07438,0.0998 3.07438,0.91848 3.07438,0.17971 3.07438,0 3.07438,0.3594 3.07438,0 3.07438,0 3.07438,0 3.07438,0.1797 3.07438,0 3.07438,0 3.07438,0 3.07438,0 3.07438,0 3.07438,0 3.07438,0 3.07438,0 3.07438,0 3.07438,0 3.07438,0 3.07438,0 3.07438,0 3.07438,0 3.07438,0 3.07438,0 3.07438,0 3.07438,0 3.07438,0 3.07438,0 3.07438,0 3.07438,0 3.07439,0 3.07438,0 3.07438,0 3.07438,0 3.07438,0 3.07438,0 3.07438,0 3.07438,0 3.07438,0 3.07438,0 3.07438,0 3.07438,0 3.07438,0 3.07438,0 3.07438,0 3.07438,0 3.07438,0"
           style="fill:none;stroke:#0000ff;stroke-width:5;stroke-linecap:square;stroke-linejoin:round;stroke-miterlimit:10;stroke-dasharray:none;stroke-opacity:1"
           id="path7794"
           inkscape:connector-curvature="0" /></g></g><g
       id="g7796"><g
         id="g7798"
         clip-path="url(#clipPath7800)"><path
           d="M 69.218182,45.883636 373.58182,243.55636"
           style="fill:none;stroke:#ff0000;stroke-width:2;stroke-linecap:butt;stroke-linejoin:round;stroke-miterlimit:10;stroke-dasharray:7.4, 3.2;stroke-dashoffset:0;stroke-opacity:0.5"
           id="path7804"
           inkscape:connector-curvature="0" /></g></g><g
       id="g7806"><path
         d="m 54,36 0,217.44"
         style="fill:none;stroke:#000000;stroke-width:0.80000001;stroke-linecap:square;stroke-linejoin:miter;stroke-miterlimit:10;stroke-dasharray:none;stroke-opacity:1"
         id="path7808"
         inkscape:connector-curvature="0" /><path
         d="m 388.8,36 0,217.44"
         style="fill:none;stroke:#000000;stroke-width:0.80000001;stroke-linecap:square;stroke-linejoin:miter;stroke-miterlimit:10;stroke-dasharray:none;stroke-opacity:1"
         id="path7810"
         inkscape:connector-curvature="0" /><path
         d="m 54,36 334.8,0"
         style="fill:none;stroke:#000000;stroke-width:0.80000001;stroke-linecap:square;stroke-linejoin:miter;stroke-miterlimit:10;stroke-dasharray:none;stroke-opacity:1"
         id="path7812"
         inkscape:connector-curvature="0" /><path
         d="m 54,253.44 334.8,0"
         style="fill:none;stroke:#000000;stroke-width:0.80000001;stroke-linecap:square;stroke-linejoin:miter;stroke-miterlimit:10;stroke-dasharray:none;stroke-opacity:1"
         id="path7814"
         inkscape:connector-curvature="0" /><text
         transform="scale(1,-1)"
         style="font-style:normal;font-variant:normal;font-weight:normal;font-stretch:normal;font-size:16px;line-height:125%;font-family:sans-serif;-inkscape-font-specification:'sans-serif, Normal';text-align:center;writing-mode:lr;text-anchor:middle;fill:#000000;fill-opacity:1;fill-rule:nonzero;stroke:none;"
         id="text7816"
         sodipodi:linespacing="125%"
         x="218.08359"
         y="-278.64008"><tspan
           sodipodi:role="line"
           id="tspan8407">Alzheimer's Development vs. Control:</tspan><tspan
           sodipodi:role="line"
           id="tspan8409">Selective Chromatography</tspan></text>
<path
         d="m 191.8,41 190,0 c 1.33333,0 2,0.666667 2,2 l 0,43.015625 c 0,1.333333 -0.66667,2 -2,2 l -190,0 c -1.33333,0 -2,-0.666667 -2,-2 L 189.8,43 c 0,-1.333333 0.66667,-2 2,-2 z"
         style="fill:#ffffff;fill-opacity:0.8;fill-rule:nonzero;stroke:#cccccc;stroke-width:1;stroke-linecap:butt;stroke-linejoin:miter;stroke-miterlimit:10;stroke-dasharray:none;stroke-opacity:0.8"
         id="path7820"
         inkscape:connector-curvature="0" /><path
         d="m 193.8,79.921875 20,0"
         style="fill:none;stroke:#0000ff;stroke-width:5;stroke-linecap:square;stroke-linejoin:round;stroke-miterlimit:10;stroke-dasharray:none;stroke-opacity:1"
         id="path7822"
         inkscape:connector-curvature="0" /><g
         id="g7824"
         transform="translate(221.8,76.421875)"><text
           transform="matrix(1,0,0,-1,0,0.578125)"
           style="font-variant:normal;font-weight:normal;font-size:10px;font-family:'DejaVu Sans';-inkscape-font-specification:DejaVuSans;writing-mode:lr-tb;fill:#000000;fill-opacity:1;fill-rule:nonzero;stroke:none"
           id="text7826"><tspan
             x="0 8.6279297 14.780273 20.908203 27.246094 30.424805 37.373047 45.244141 52.226562 55.405273 59.013672 62.192383 69.033203 76.352539 83.334961 86.513672 94.892578 98.071289 104.43359 107.6123 113.97461 120.33691 123.51562 131.89453 135.07324 141.43555 144.61426 150.97656"
             y="0"
             sodipodi:role="line"
             id="tspan7828">Mean ROC - AUC = 0.82 ± 0.04</tspan></text>
</g><path
         d="m 193.8,65.25 20,0"
         style="fill:none;stroke:#ff0000;stroke-width:2;stroke-linecap:butt;stroke-linejoin:round;stroke-miterlimit:10;stroke-dasharray:7.4, 3.2;stroke-dashoffset:0;stroke-opacity:0.5"
         id="path7830"
         inkscape:connector-curvature="0" /><text
         transform="matrix(1,0,0,-1,221.8,61.75)"
         style="font-variant:normal;font-weight:normal;font-size:10px;font-family:'DejaVu Sans';-inkscape-font-specification:DejaVuSans;writing-mode:lr-tb;fill:#000000;fill-opacity:1;fill-rule:nonzero;stroke:none"
         id="text7832"><tspan
           x="0 5.5700002 11.91 17.41"
           y="0"
           sodipodi:role="line"
           id="tspan7834">Luck</tspan></text>
<path
         d="m 193.8,47.078125 20,0 0,7 -20,0 0,-7 z"
         style="fill:#808080;fill-opacity:0.2;fill-rule:nonzero;stroke:#808080;stroke-width:1;stroke-linecap:butt;stroke-linejoin:miter;stroke-miterlimit:10;stroke-dasharray:none;stroke-opacity:0.2"
         id="path7836"
         inkscape:connector-curvature="0" /><g
         id="g7838"
         transform="translate(221.8,47.078125)"><text
           transform="matrix(1,0,0,-1,0,0.40625)"
           style="font-variant:normal;font-weight:normal;font-size:10px;font-family:'DejaVu Sans';-inkscape-font-specification:DejaVuSans;writing-mode:lr-tb;fill:#000000;fill-opacity:1;fill-rule:nonzero;stroke:none"
           id="text7840"><tspan
             x="0 8.3789062 11.557617 17.919922 21.098633 26.308594 30.229492 36.577148 42.729492"
             y="0"
             sodipodi:role="line"
             id="tspan7842">± 1 stdev</tspan></text>
</g></g></g></svg>