<?xml version="1.0" encoding="UTF-8" standalone="no"?>
<!-- Created with Inkscape (http://www.inkscape.org/) -->

<svg
   xmlns:dc="http://purl.org/dc/elements/1.1/"
   xmlns:cc="http://creativecommons.org/ns#"
   xmlns:rdf="http://www.w3.org/1999/02/22-rdf-syntax-ns#"
   xmlns:svg="http://www.w3.org/2000/svg"
   xmlns="http://www.w3.org/2000/svg"
   xmlns:sodipodi="http://sodipodi.sourceforge.net/DTD/sodipodi-0.dtd"
   xmlns:inkscape="http://www.inkscape.org/namespaces/inkscape"
   id="svg6934"
   version="1.1"
   inkscape:version="0.91 r"
   xml:space="preserve"
   width="540"
   height="360"
   viewBox="0 0 540 360"
   sodipodi:docname="alzheimers_roc.svg"><metadata
     id="metadata6940"><rdf:RDF><cc:Work
         rdf:about=""><dc:format>image/svg+xml</dc:format><dc:type
           rdf:resource="http://purl.org/dc/dcmitype/StillImage" /><dc:title></dc:title></cc:Work></rdf:RDF></metadata><defs
     id="defs6938"><clipPath
       clipPathUnits="userSpaceOnUse"
       id="clipPath6952"><path
         d="m 54,36 334.8,0 0,217.44 -334.8,0 L 54,36 Z"
         id="path6954"
         inkscape:connector-curvature="0" /></clipPath><clipPath
       clipPathUnits="userSpaceOnUse"
       id="clipPath7044"><path
         d="m 54,36 334.8,0 0,217.44 -334.8,0 L 54,36 Z"
         id="path7046"
         inkscape:connector-curvature="0" /></clipPath><clipPath
       clipPathUnits="userSpaceOnUse"
       id="clipPath7054"><path
         d="m 54,36 334.8,0 0,217.44 -334.8,0 L 54,36 Z"
         id="path7056"
         inkscape:connector-curvature="0" /></clipPath></defs><sodipodi:namedview
     pagecolor="#ffffff"
     bordercolor="#666666"
     borderopacity="1"
     objecttolerance="10"
     gridtolerance="10"
     guidetolerance="10"
     inkscape:pageopacity="0"
     inkscape:pageshadow="2"
     inkscape:window-width="1351"
     inkscape:window-height="1028"
     id="namedview6936"
     showgrid="false"
     inkscape:zoom="1.3111111"
     inkscape:cx="273.95465"
     inkscape:cy="127.37062"
     inkscape:window-x="527"
     inkscape:window-y="24"
     inkscape:window-maximized="0"
     inkscape:current-layer="g7060" /><g
     id="g6942"
     inkscape:groupmode="layer"
     inkscape:label="alzheimers_roc"
     transform="matrix(1.25,0,0,-1.25,0,360)"><path
       d="M 0,0 432,0 432,288 0,288 0,0 Z"
       style="fill:#ffffff;fill-opacity:1;fill-rule:nonzero;stroke:none"
       id="path6944"
       inkscape:connector-curvature="0" /><path
       d="m 54,36 334.8,0 0,217.44 -334.8,0 L 54,36 Z"
       style="fill:#ffffff;fill-opacity:1;fill-rule:nonzero;stroke:none"
       id="path6946"
       inkscape:connector-curvature="0" /><g
       id="g6948"><g
         id="g6950"
         clip-path="url(#clipPath6952)"><path
           d="m 69.218182,45.883636 0,0 3.07438,0 3.07438,3.61061 3.07438,0.355618 3.07438,14.567597 3.074381,-0.172519 3.07438,9.721892 3.07438,-0.03105 3.07438,11.49223 3.07438,10.670834 3.07438,0.622142 3.074377,15.12334 3.07438,0.65489 3.07438,10.14525 3.07438,0.208 3.07438,5.97577 3.07438,0.11947 3.07439,8.49286 3.07438,3.22564 3.07438,0.0548 3.07437,6.91852 3.07438,0.64947 3.07438,5.35268 3.07439,0.2628 3.07438,5.7132 3.07438,0.70943 3.07438,5.45474 3.07438,5.75482 3.07438,0.37955 3.07438,5.99024 3.07438,0.30971 3.07438,3.78459 3.07438,0 3.07438,4.69185 3.07438,0.128 3.07438,8.23058 3.07438,4.46438 3.07438,0.20621 3.07438,8.14491 3.07438,0.23147 3.07438,3.25551 3.07438,0.14665 3.07438,5.94104 3.07438,0 3.07438,7.21725 3.07438,3.41313 3.07438,0.0849 3.07438,2.86905 3.07438,0 3.07438,1.77199 3.07438,0 3.07438,0.86042 3.07438,0 3.07438,4.74505 3.07438,5.1532 3.07438,0 3.07438,0 3.07438,0 3.07438,0 3.07438,0 3.07438,0 3.07438,0 3.07438,0 3.07438,0 3.07438,0 3.07438,0 3.07438,0 3.07438,0 3.07438,0 3.07438,0 3.07438,0 3.07438,0 3.07438,0 3.07438,0 3.07438,0 3.07438,0 3.07438,0 3.07438,0 3.07438,0 3.07438,0 3.07438,0 3.07438,0 3.07438,0 3.07439,0 3.07438,0 3.07438,0 3.07438,0 3.07438,0 3.07438,0 3.07438,0 3.07438,0 3.07438,0 3.07438,0 3.07438,0 3.07438,0 3.07438,0 3.07438,0 3.07438,0 3.07438,0 3.07438,0 0,0 0,0 -3.07438,0 -3.07438,0 -3.07438,0 -3.07438,0 -3.07438,0 -3.07438,0 -3.07438,0 -3.07438,0 -3.07438,0 -3.07438,0 -3.07438,0 -3.07438,0 -3.07438,0 -3.07438,0 -3.07438,0 -3.07438,0 -3.07439,0 -3.07438,0 -3.07438,0 -3.07438,0 -3.07438,0 -3.07438,0 -3.07438,0 -3.07438,0 -3.07438,0 -3.07438,0 -3.07438,0 -3.07438,0 -3.07438,0 -3.07438,0 -3.07438,0 -3.07438,0 -3.07438,0 -3.07438,0 -3.07438,0 -3.07438,0 -3.07438,0 -3.07438,0 -3.07438,0 -3.07438,0 -3.07438,0 -3.07438,0 -3.07438,0 -3.07438,0 -3.07438,0 -3.07438,0 -3.07438,0 -3.07438,0 -3.07438,0 -3.07438,0 -3.07438,0 -3.07438,0 -3.07438,0 -3.07438,0 -3.07438,0 -3.07438,0 -3.07438,0 -3.07438,0 -3.07438,0 -3.07438,0 -3.07438,0 -3.07438,-3.56698 -3.07438,-0.19314 -3.07438,-3.64219 -3.07438,-3.86939 -3.07438,-0.27134 -3.07438,-3.45466 -3.07438,0 -3.07438,-3.28371 -3.07438,-0.0896 -3.07438,-4.11304 -3.07438,-0.0198 -3.07438,-7.46329 -3.07438,-6.72509 -3.07438,-0.48859 -3.07438,-4.62968 -3.07439,-1.33455 -3.07438,-3.01347 -3.07438,-0.84806 -3.07437,-4.243 -3.07438,-0.045 -3.07438,-5.28028 -3.07439,-4.96486 -3.07438,-0.0802 -3.07438,-4.88625 -3.07438,-0.59068 -3.07438,-8.92318 -3.07438,-0.64296 -3.074377,-15.48598 -3.07438,-0.47604 -3.07438,-10.67383 -3.07438,-13.14697 -3.07438,-0.82973 -3.07438,-17.83249 -3.074381,-0.47203 -3.07438,-19.935272 -3.07438,-0.04372 -3.07438,-15.372832 -3.07438,-26.740856 z"
           style="fill:#808080;fill-opacity:0.2;fill-rule:nonzero;stroke:#808080;stroke-width:1;stroke-linecap:butt;stroke-linejoin:round;stroke-miterlimit:10;stroke-dasharray:none;stroke-opacity:0.2"
           id="path6956"
           inkscape:connector-curvature="0" /></g></g><g
       id="g6958"><path
         d="m 69.218182,36 0,-3.5"
         style="fill:#000000;fill-opacity:1;fill-rule:nonzero;stroke:#000000;stroke-width:0.80000001;stroke-linecap:butt;stroke-linejoin:round;stroke-miterlimit:10;stroke-dasharray:none;stroke-opacity:1"
         id="path6960"
         inkscape:connector-curvature="0" /><text
         transform="matrix(1,0,0,-1,61.265057,21.40625)"
         style="font-variant:normal;font-weight:normal;font-size:10px;font-family:'DejaVu Sans';-inkscape-font-specification:DejaVuSans;writing-mode:lr-tb;fill:#000000;fill-opacity:1;fill-rule:nonzero;stroke:none"
         id="text6962"><tspan
           x="0 6.3600001 9.54"
           y="0"
           sodipodi:role="line"
           id="tspan6964">0.0</tspan></text>
<path
         d="m 130.09091,36 0,-3.5"
         style="fill:#000000;fill-opacity:1;fill-rule:nonzero;stroke:#000000;stroke-width:0.80000001;stroke-linecap:butt;stroke-linejoin:round;stroke-miterlimit:10;stroke-dasharray:none;stroke-opacity:1"
         id="path6966"
         inkscape:connector-curvature="0" /><text
         transform="matrix(1,0,0,-1,122.13778,21.40625)"
         style="font-variant:normal;font-weight:normal;font-size:10px;font-family:'DejaVu Sans';-inkscape-font-specification:DejaVuSans;writing-mode:lr-tb;fill:#000000;fill-opacity:1;fill-rule:nonzero;stroke:none"
         id="text6968"><tspan
           x="0 6.3600001 9.54"
           y="0"
           sodipodi:role="line"
           id="tspan6970">0.2</tspan></text>
<path
         d="m 190.96364,36 0,-3.5"
         style="fill:#000000;fill-opacity:1;fill-rule:nonzero;stroke:#000000;stroke-width:0.80000001;stroke-linecap:butt;stroke-linejoin:round;stroke-miterlimit:10;stroke-dasharray:none;stroke-opacity:1"
         id="path6972"
         inkscape:connector-curvature="0" /><text
         transform="matrix(1,0,0,-1,183.01051,21.40625)"
         style="font-variant:normal;font-weight:normal;font-size:10px;font-family:'DejaVu Sans';-inkscape-font-specification:DejaVuSans;writing-mode:lr-tb;fill:#000000;fill-opacity:1;fill-rule:nonzero;stroke:none"
         id="text6974"><tspan
           x="0 6.3600001 9.54"
           y="0"
           sodipodi:role="line"
           id="tspan6976">0.4</tspan></text>
<path
         d="m 251.83636,36 0,-3.5"
         style="fill:#000000;fill-opacity:1;fill-rule:nonzero;stroke:#000000;stroke-width:0.80000001;stroke-linecap:butt;stroke-linejoin:round;stroke-miterlimit:10;stroke-dasharray:none;stroke-opacity:1"
         id="path6978"
         inkscape:connector-curvature="0" /><text
         transform="matrix(1,0,0,-1,243.88324,21.40625)"
         style="font-variant:normal;font-weight:normal;font-size:10px;font-family:'DejaVu Sans';-inkscape-font-specification:DejaVuSans;writing-mode:lr-tb;fill:#000000;fill-opacity:1;fill-rule:nonzero;stroke:none"
         id="text6980"><tspan
           x="0 6.3600001 9.54"
           y="0"
           sodipodi:role="line"
           id="tspan6982">0.6</tspan></text>
<path
         d="m 312.70909,36 0,-3.5"
         style="fill:#000000;fill-opacity:1;fill-rule:nonzero;stroke:#000000;stroke-width:0.80000001;stroke-linecap:butt;stroke-linejoin:round;stroke-miterlimit:10;stroke-dasharray:none;stroke-opacity:1"
         id="path6984"
         inkscape:connector-curvature="0" /><text
         transform="matrix(1,0,0,-1,304.75597,21.40625)"
         style="font-variant:normal;font-weight:normal;font-size:10px;font-family:'DejaVu Sans';-inkscape-font-specification:DejaVuSans;writing-mode:lr-tb;fill:#000000;fill-opacity:1;fill-rule:nonzero;stroke:none"
         id="text6986"><tspan
           x="0 6.3600001 9.54"
           y="0"
           sodipodi:role="line"
           id="tspan6988">0.8</tspan></text>
<path
         d="m 373.58182,36 0,-3.5"
         style="fill:#000000;fill-opacity:1;fill-rule:nonzero;stroke:#000000;stroke-width:0.80000001;stroke-linecap:butt;stroke-linejoin:round;stroke-miterlimit:10;stroke-dasharray:none;stroke-opacity:1"
         id="path6990"
         inkscape:connector-curvature="0" /><text
         transform="matrix(1,0,0,-1,365.62869,21.40625)"
         style="font-variant:normal;font-weight:normal;font-size:10px;font-family:'DejaVu Sans';-inkscape-font-specification:DejaVuSans;writing-mode:lr-tb;fill:#000000;fill-opacity:1;fill-rule:nonzero;stroke:none"
         id="text6992"><tspan
           x="0 6.3600001 9.54"
           y="0"
           sodipodi:role="line"
           id="tspan6994">1.0</tspan></text>
<text
         transform="matrix(1,0,0,-1,174.15,7.734375)"
         style="font-variant:normal;font-weight:normal;font-size:10px;font-family:'DejaVu Sans';-inkscape-font-specification:DejaVuSans;writing-mode:lr-tb;fill:#000000;fill-opacity:1;fill-rule:nonzero;stroke:none"
         id="text6996"><tspan
           x="0 5.75 11.88 14.66 19.870001 26.02 29.200001 35.23 41.349998 46.560001 49.34 53.259998 56.040001 61.959999 68.110001 71.290001 78.239998 84.370003 88.290001"
           y="0"
           sodipodi:role="line"
           id="tspan6998">False Positive Rate</tspan></text>
<path
         d="m 54,45.883636 -3.5,0"
         style="fill:#000000;fill-opacity:1;fill-rule:nonzero;stroke:#000000;stroke-width:0.80000001;stroke-linecap:butt;stroke-linejoin:round;stroke-miterlimit:10;stroke-dasharray:none;stroke-opacity:1"
         id="path7000"
         inkscape:connector-curvature="0" /><text
         transform="matrix(1,0,0,-1,31.09375,42.086761)"
         style="font-variant:normal;font-weight:normal;font-size:10px;font-family:'DejaVu Sans';-inkscape-font-specification:DejaVuSans;writing-mode:lr-tb;fill:#000000;fill-opacity:1;fill-rule:nonzero;stroke:none"
         id="text7002"><tspan
           x="0 6.3600001 9.54"
           y="0"
           sodipodi:role="line"
           id="tspan7004">0.0</tspan></text>
<path
         d="m 54,85.418182 -3.5,0"
         style="fill:#000000;fill-opacity:1;fill-rule:nonzero;stroke:#000000;stroke-width:0.80000001;stroke-linecap:butt;stroke-linejoin:round;stroke-miterlimit:10;stroke-dasharray:none;stroke-opacity:1"
         id="path7006"
         inkscape:connector-curvature="0" /><text
         transform="matrix(1,0,0,-1,31.09375,81.621307)"
         style="font-variant:normal;font-weight:normal;font-size:10px;font-family:'DejaVu Sans';-inkscape-font-specification:DejaVuSans;writing-mode:lr-tb;fill:#000000;fill-opacity:1;fill-rule:nonzero;stroke:none"
         id="text7008"><tspan
           x="0 6.3600001 9.54"
           y="0"
           sodipodi:role="line"
           id="tspan7010">0.2</tspan></text>
<path
         d="m 54,124.95273 -3.5,0"
         style="fill:#000000;fill-opacity:1;fill-rule:nonzero;stroke:#000000;stroke-width:0.80000001;stroke-linecap:butt;stroke-linejoin:round;stroke-miterlimit:10;stroke-dasharray:none;stroke-opacity:1"
         id="path7012"
         inkscape:connector-curvature="0" /><text
         transform="matrix(1,0,0,-1,31.09375,121.15585)"
         style="font-variant:normal;font-weight:normal;font-size:10px;font-family:'DejaVu Sans';-inkscape-font-specification:DejaVuSans;writing-mode:lr-tb;fill:#000000;fill-opacity:1;fill-rule:nonzero;stroke:none"
         id="text7014"><tspan
           x="0 6.3600001 9.54"
           y="0"
           sodipodi:role="line"
           id="tspan7016">0.4</tspan></text>
<path
         d="m 54,164.48727 -3.5,0"
         style="fill:#000000;fill-opacity:1;fill-rule:nonzero;stroke:#000000;stroke-width:0.80000001;stroke-linecap:butt;stroke-linejoin:round;stroke-miterlimit:10;stroke-dasharray:none;stroke-opacity:1"
         id="path7018"
         inkscape:connector-curvature="0" /><text
         transform="matrix(1,0,0,-1,31.09375,160.6904)"
         style="font-variant:normal;font-weight:normal;font-size:10px;font-family:'DejaVu Sans';-inkscape-font-specification:DejaVuSans;writing-mode:lr-tb;fill:#000000;fill-opacity:1;fill-rule:nonzero;stroke:none"
         id="text7020"><tspan
           x="0 6.3600001 9.54"
           y="0"
           sodipodi:role="line"
           id="tspan7022">0.6</tspan></text>
<path
         d="m 54,204.02182 -3.5,0"
         style="fill:#000000;fill-opacity:1;fill-rule:nonzero;stroke:#000000;stroke-width:0.80000001;stroke-linecap:butt;stroke-linejoin:round;stroke-miterlimit:10;stroke-dasharray:none;stroke-opacity:1"
         id="path7024"
         inkscape:connector-curvature="0" /><text
         transform="matrix(1,0,0,-1,31.09375,200.22494)"
         style="font-variant:normal;font-weight:normal;font-size:10px;font-family:'DejaVu Sans';-inkscape-font-specification:DejaVuSans;writing-mode:lr-tb;fill:#000000;fill-opacity:1;fill-rule:nonzero;stroke:none"
         id="text7026"><tspan
           x="0 6.3600001 9.54"
           y="0"
           sodipodi:role="line"
           id="tspan7028">0.8</tspan></text>
<path
         d="m 54,243.55636 -3.5,0"
         style="fill:#000000;fill-opacity:1;fill-rule:nonzero;stroke:#000000;stroke-width:0.80000001;stroke-linecap:butt;stroke-linejoin:round;stroke-miterlimit:10;stroke-dasharray:none;stroke-opacity:1"
         id="path7030"
         inkscape:connector-curvature="0" /><text
         transform="matrix(1,0,0,-1,31.09375,239.75949)"
         style="font-variant:normal;font-weight:normal;font-size:10px;font-family:'DejaVu Sans';-inkscape-font-specification:DejaVuSans;writing-mode:lr-tb;fill:#000000;fill-opacity:1;fill-rule:nonzero;stroke:none"
         id="text7032"><tspan
           x="0 6.3600001 9.54"
           y="0"
           sodipodi:role="line"
           id="tspan7034">1.0</tspan></text>
<text
         transform="matrix(0,1,1,0,25.015625,99.134062)"
         style="font-variant:normal;font-weight:normal;font-size:10px;font-family:'DejaVu Sans';-inkscape-font-specification:DejaVuSans;writing-mode:lr-tb;fill:#000000;fill-opacity:1;fill-rule:nonzero;stroke:none"
         id="text7036"><tspan
           x="0 6.1100001 10.22 16.559999 22.709999 25.889999 31.92 38.040001 43.25 46.029999 49.950001 52.73 58.650002 64.800003 67.980003 74.93 81.059998 84.980003"
           y="0"
           sodipodi:role="line"
           id="tspan7038">True Positive Rate</tspan></text>
</g><g
       id="g7040"><g
         id="g7042"
         clip-path="url(#clipPath7044)"><path
           d="m 69.218182,45.883636 3.07438,12.139901 3.07438,10.722248 3.07438,0.19967 3.07438,17.251438 3.074381,0.149752 3.07438,13.777185 3.07438,0.39934 3.07438,12.31961 3.07438,10.67233 3.07438,0.54909 3.074377,15.30466 3.07438,0.64892 3.07438,9.53422 3.07438,0.39934 3.07438,5.43101 3.07438,0.0998 3.07439,6.72886 3.07438,4.25296 3.07438,0.0499 3.07437,5.58076 3.07438,0.74876 3.07438,4.18307 3.07439,0.79868 3.07438,5.17144 3.07438,0.59901 3.07438,6.08991 3.07438,6.60906 3.07438,0.19967 3.07438,5.05164 3.07438,0.19967 3.07438,3.53415 3.07438,0 3.07438,4.07325 3.07438,0.19967 3.07438,6.04998 3.07438,4.05329 3.07438,0.19967 3.07438,6.46929 3.07438,0.0998 3.07438,3.15477 3.07438,0.0998 3.07438,3.63398 3.07438,0 3.07438,3.43432 3.07438,2.04661 3.07438,0.0499 3.07438,1.47756 3.07438,0 3.07438,0.71881 3.07438,0 3.07438,0.3594 3.07438,0 3.07438,1.15809 3.07438,0.99834 3.07438,0 3.07438,0 3.07438,0 3.07438,0 3.07438,0 3.07438,0 3.07438,0 3.07438,0 3.07438,0 3.07438,0 3.07438,0 3.07438,0 3.07438,0 3.07438,0 3.07438,0 3.07438,0 3.07438,0 3.07438,0 3.07438,0 3.07438,0 3.07438,0 3.07438,0 3.07438,0 3.07438,0 3.07438,0 3.07438,0 3.07438,0 3.07438,0 3.07439,0 3.07438,0 3.07438,0 3.07438,0 3.07438,0 3.07438,0 3.07438,0 3.07438,0 3.07438,0 3.07438,0 3.07438,0 3.07438,0 3.07438,0 3.07438,0 3.07438,0 3.07438,0 3.07438,0"
           style="fill:none;stroke:#0000ff;stroke-width:5;stroke-linecap:square;stroke-linejoin:round;stroke-miterlimit:10;stroke-dasharray:none;stroke-opacity:1"
           id="path7048"
           inkscape:connector-curvature="0" /></g></g><g
       id="g7050"><g
         id="g7052"
         clip-path="url(#clipPath7054)"><path
           d="M 69.218182,45.883636 373.58182,243.55636"
           style="fill:none;stroke:#ff0000;stroke-width:2;stroke-linecap:butt;stroke-linejoin:round;stroke-miterlimit:10;stroke-dasharray:7.4, 3.2;stroke-dashoffset:0;stroke-opacity:0.5"
           id="path7058"
           inkscape:connector-curvature="0" /></g></g><g
       id="g7060"><path
         d="m 54,36 0,217.44"
         style="fill:none;stroke:#000000;stroke-width:0.80000001;stroke-linecap:square;stroke-linejoin:miter;stroke-miterlimit:10;stroke-dasharray:none;stroke-opacity:1"
         id="path7062"
         inkscape:connector-curvature="0" /><path
         d="m 388.8,36 0,217.44"
         style="fill:none;stroke:#000000;stroke-width:0.80000001;stroke-linecap:square;stroke-linejoin:miter;stroke-miterlimit:10;stroke-dasharray:none;stroke-opacity:1"
         id="path7064"
         inkscape:connector-curvature="0" /><path
         d="m 54,36 334.8,0"
         style="fill:none;stroke:#000000;stroke-width:0.80000001;stroke-linecap:square;stroke-linejoin:miter;stroke-miterlimit:10;stroke-dasharray:none;stroke-opacity:1"
         id="path7066"
         inkscape:connector-curvature="0" /><path
         d="m 54,253.44 334.8,0"
         style="fill:none;stroke:#000000;stroke-width:0.80000001;stroke-linecap:square;stroke-linejoin:miter;stroke-miterlimit:10;stroke-dasharray:none;stroke-opacity:1"
         id="path7068"
         inkscape:connector-curvature="0" /><text
         transform="scale(1,-1)"
         style="font-style:normal;font-variant:normal;font-weight:normal;font-stretch:normal;font-size:16px;line-height:125%;font-family:sans-serif;-inkscape-font-specification:'sans-serif, Normal';text-align:center;writing-mode:lr-tb;text-anchor:middle;fill:#000000;fill-opacity:1;fill-rule:nonzero;stroke:none;"
         id="text7070"
         sodipodi:linespacing="125%"
         x="218.08359"
         y="-280.24008"><tspan
           sodipodi:role="line"
           id="tspan7638"
           x="67.993752"
           y="-280.24008">Alzheimer's Development vs. Control:</tspan><tspan
           sodipodi:role="line"
           id="tspan7640"
           x="67.993752"
           y="-260.24008">Full Chromatography</tspan></text>
<path
         d="m 191.8,41 190,0 c 1.33333,0 2,0.666667 2,2 l 0,43.015625 c 0,1.333333 -0.66667,2 -2,2 l -190,0 c -1.33333,0 -2,-0.666667 -2,-2 L 189.8,43 c 0,-1.333333 0.66667,-2 2,-2 z"
         style="fill:#ffffff;fill-opacity:0.8;fill-rule:nonzero;stroke:#cccccc;stroke-width:1;stroke-linecap:butt;stroke-linejoin:miter;stroke-miterlimit:10;stroke-dasharray:none;stroke-opacity:0.8"
         id="path7074"
         inkscape:connector-curvature="0" /><path
         d="m 193.8,79.921875 20,0"
         style="fill:none;stroke:#0000ff;stroke-width:5;stroke-linecap:square;stroke-linejoin:round;stroke-miterlimit:10;stroke-dasharray:none;stroke-opacity:1"
         id="path7076"
         inkscape:connector-curvature="0" /><g
         id="g7078"
         transform="translate(221.8,76.421875)"><text
           transform="matrix(1,0,0,-1,0,0.578125)"
           style="font-variant:normal;font-weight:normal;font-size:10px;font-family:'DejaVu Sans';-inkscape-font-specification:DejaVuSans;writing-mode:lr-tb;fill:#000000;fill-opacity:1;fill-rule:nonzero;stroke:none"
           id="text7080"><tspan
             x="0 8.6279297 14.780273 20.908203 27.246094 30.424805 37.373047 45.244141 52.226562 55.405273 59.013672 62.192383 69.033203 76.352539 83.334961 86.513672 94.892578 98.071289 104.43359 107.6123 113.97461 120.33691 123.51562 131.89453 135.07324 141.43555 144.61426 150.97656"
             y="0"
             sodipodi:role="line"
             id="tspan7082">Mean ROC - AUC = 0.83 ± 0.04</tspan></text>
</g><path
         d="m 193.8,65.25 20,0"
         style="fill:none;stroke:#ff0000;stroke-width:2;stroke-linecap:butt;stroke-linejoin:round;stroke-miterlimit:10;stroke-dasharray:7.4, 3.2;stroke-dashoffset:0;stroke-opacity:0.5"
         id="path7084"
         inkscape:connector-curvature="0" /><text
         transform="matrix(1,0,0,-1,221.8,61.75)"
         style="font-variant:normal;font-weight:normal;font-size:10px;font-family:'DejaVu Sans';-inkscape-font-specification:DejaVuSans;writing-mode:lr-tb;fill:#000000;fill-opacity:1;fill-rule:nonzero;stroke:none"
         id="text7086"><tspan
           x="0 5.5700002 11.91 17.41"
           y="0"
           sodipodi:role="line"
           id="tspan7088">Luck</tspan></text>
<path
         d="m 193.8,47.078125 20,0 0,7 -20,0 0,-7 z"
         style="fill:#808080;fill-opacity:0.2;fill-rule:nonzero;stroke:#808080;stroke-width:1;stroke-linecap:butt;stroke-linejoin:miter;stroke-miterlimit:10;stroke-dasharray:none;stroke-opacity:0.2"
         id="path7090"
         inkscape:connector-curvature="0" /><g
         id="g7092"
         transform="translate(221.8,47.078125)"><text
           transform="matrix(1,0,0,-1,0,0.40625)"
           style="font-variant:normal;font-weight:normal;font-size:10px;font-family:'DejaVu Sans';-inkscape-font-specification:DejaVuSans;writing-mode:lr-tb;fill:#000000;fill-opacity:1;fill-rule:nonzero;stroke:none"
           id="text7094"><tspan
             x="0 8.3789062 11.557617 17.919922 21.098633 26.308594 30.229492 36.577148 42.729492"
             y="0"
             sodipodi:role="line"
             id="tspan7096">± 1 stdev</tspan></text>
</g></g></g></svg>